<svg version="1.2" xmlns="http://www.w3.org/2000/svg" viewBox="0 0 1074 129" width="1074" height="129">
	<style>
		.s0 { fill: #000000 } 
	</style>
	<path id="headlessengineer" class="s0" aria-label="headlessengineer"  d="m60.9 69.9c0 16.1-1.9 37.9 6.2 36.8 3.7-0.5 9.3-5.6 18-17.8 1.1-1.5 2-2.9 2.9-4.2l-2-0.6c-9.1 18.3-11.5 1.3-11.8-9.3-0.4-10-0.1-14.4-0.1-24.5 0-20.3-35-1.2-42 3.9v-18.9h54.3l-10.3-6.5h-43.9l-12.9-27.8h-13.2l12.6 27.8h-18.9l10.3 6.5h8.8l-0.1 20.3v18.2c0 7.6 5.3 12.2 19.5 14.3v-1.8c-5.8-0.7-6.2-6.1-6.2-9.3v-16.1c0-6.7 28.8-19.8 28.8-10.6zm81.9-0.7l-2 0.2c-0.6 0-1 0.3-0.9 0.5 1.6 5.6-9.4 15.7-22.7 15.7-7.4 0-13.4-3.8-13.4-7.1 0-6.7 10.5-9.3 15.5-10.2 10.4-1.7 19.4-4 25.1-7.1 4.6-2.5 6.9-5.7 5.7-9.5-2.4-7.7-14.5-11.2-27.3-11.1v-5.3h34.8l-10.2-6.5h-31l-42.6 0.1 10.3 6.4h32.3v5.7c-9.3 0.9-18.1 3.7-23 8.5-13.7 13.7-7.5 38.7 23.9 38.7 18.9 0 25.8-14.4 25.8-19zm-6.6-16.3c2.5 8.4-23.4 10.7-32.5 19-2.4 1.2-6.5-28.6 13.5-28.6 10.2 0 17.7 5.6 19 9.6zm64.1-12.2c-15.4 0-22.9 3.9-28.6 1.6v-7h61.5l-10.3-6.4h-78.1l10.3 6.4h10.2l-0.3 12.5c5.7 1.4 21.9 9.1 23.9 10.5-8.5 2.9-19.1 6.4-24.7 10.2-13.8 9.2-12.1 19.2 16.7 19.7 7.8 0.1 24.8-3.5 31.3-10.8v10c0 20.9 7.8 18.3 19.6 19.2v-1.2c-8.7-2.8-6.8-14.5-7.2-22.2 0-5.9 0.3-17.5 0.1-23.3-0.2-8-1.3-19.2-24.4-19.2zm10.8 13.3c0.4 4.5 0.9 9 0.8 13.6-0.1 2.9-0.1 6.9-1.9 9.2-11.4 14.2-66.5 10.4-17.4-15.9l1.9-1.1-10.4-7.2c-6.6-6.1 12-9.3 15.6-9.3 8.3 0 10.8 3.7 11.4 10.7zm66.7 32.6c4.2 0 8.5 1.1 12.9 1.5v-2.3c-3.7-1.2-6.2-3.9-6.3-6.1 0-14.8 0-29.6 0-44.4h14.4l-10.2-6.5h-3.7l-12.9-27.8h-13.2l12.4 27.8h-49.4l10.3 6.5h39.1v5.3c-46.6 0-51.8 46.8-13.9 47.5 6.1 0.1 12.6-1.3 20.5-1.5zm-6.6-44.1v37c0 5.8-12.1 8.8-19.7 1-10.4-10.5-8.1-38 19.7-38zm45.6-30.7c0-3.5-0.6-6.2-2-8-1.6-1.9-4.1-2.9-8-3-2.7 0-9.5 0-9.5 0v9.7c0.2 0 2.4 0 2.6 0 2.6 0 3.7 1.6 3.7 3.8 0 19.9 0.5 53.8 0.5 73.7 0 21 7.8 18.3 19.5 19.2v-1.2c-3.8-1.2-6.3-5.2-6.3-7.4 0-20-0.5-66.8-0.5-86.8zm65 57.4l-2 0.2c-0.6 0-1 0.2-0.9 0.5 1.6 5.6-9.4 15.7-22.7 15.7-7.4 0-13.4-3.8-13.4-7.1 0-6.7 10.5-9.4 15.4-10.2 10.5-1.7 19.5-4 25.2-7.1 4.6-2.6 6.9-5.7 5.7-9.5-2.4-7.8-14.5-11.2-27.3-11.1v-5.3h34.8l-10.2-6.5h-31l-42.6 0.1 10.3 6.4h32.3v5.6c-9.3 1-18.1 3.8-23 8.6-13.7 13.7-7.5 38.7 23.9 38.7 18.9 0 25.7-14.4 25.7-19.1zm-6.6-16.2c2.6 8.4-23.3 10.7-32.4 18.9-2.4 1.3-6.5-28.5 13.5-28.5 10.2 0 17.7 5.5 18.9 9.6zm20-17.6h57.9c-7.4 7.3-11.9 5.4-26.2 5.4-43.5 0-22.5 14.2-4.5 26.9 4.5 3.1 31.7 19.6 7.5 19.6-11.6 0-18.2-6.5-16.8-10.1 0.1-0.2-0.3-0.4-0.8-0.4l-1.6-0.1-10.8 12.1c0.1 0.1 0.2 0.1 0.3 0.1l1.8 0.1c0.5 0 0.9-0.1 1.1-0.2 6.1-3.6 11.5 0.2 26.6 0.2 65.2 0-13-31.2-13-42.5 0-2.5-0.6-4 10-4 11.6 0 18.7 6.2 17.3 9.8-0.1 0.2 0.2 0.4 0.8 0.4l1.4 0.1 10.6-17.5h11.9l-10.2-6.4h-73.6zm72 0h57.9c-7.4 7.4-11.9 5.5-26.2 5.5-43.5 0-22.5 14.1-4.4 26.9 4.4 3.1 31.6 19.5 7.4 19.5-11.6 0-18.2-6.4-16.7-10.1 0-0.2-0.3-0.3-0.8-0.4l-1.6-0.1-10.8 12.2c0.1 0 0.2 0 0.3 0l1.7 0.2c0.5 0 0.9-0.1 1.2-0.3 6.1-3.5 11.5 0.2 26.6 0.2 65.2 0-13.1-31.1-13.1-42.4 0-2.5-0.5-4 10.1-4 11.6 0 18.6 6.1 17.2 9.8 0 0.2 0.3 0.3 0.8 0.4l1.5 0.1 10.5-17.5h12l-10.3-6.4h-73.5zm130.6 33.9l-1.9 0.1c-0.6 0.1-1 0.3-1 0.6 1.7 5.6-9.3 15.7-22.6 15.7-7.4 0-13.5-3.8-13.5-7.1 0-6.7 10.6-9.4 15.5-10.2 10.4-1.7 19.5-4 25.2-7.1 4.6-2.6 6.9-5.7 5.7-9.5-2.5-7.8-14.5-11.2-27.3-11.1v-5.3h34.8l-10.2-6.5h-31l-42.6 0.1 10.3 6.4h32.3v5.6c-9.3 1-18.2 3.8-23 8.6-13.8 13.7-7.5 38.7 23.9 38.7 18.9 0 25.7-14.4 25.7-19.1zm-6.6-16.2c2.6 8.4-23.3 10.7-32.4 18.9-2.4 1.3-6.5-28.5 13.5-28.5 10.2 0 17.7 5.5 18.9 9.6zm64.1 17.1c-0.1 15.7-1.9 37 5.7 36.8 3.6-0.1 9.4-5.1 18.5-17.8 1-1.5 2-2.9 2.8-4.3l-1.9-0.5c-9.1 18.2-11.5 1.3-11.9-9.4-0.3-9.9 0.1-14.4 0.1-24.5 0-20.3-35-1.3-42.1 3.8v-18.9h54.3l-10.2-6.4h-70.7l10.3 6.4h3.1v20.3 18.2c-0.1 7.7 5.3 12.3 19.5 14.4v-1.9c-5.9-0.6-6.3-6-6.3-9.2v-16.1c0-6.8 28.9-19.8 28.9-10.6zm54.9-29.4c-31.5 1.5-36.3 34.9-13.3 44.7-31.7 13.5-8.7 19 11.5 24.3 5.3 1.4 36.6 7.2 13.9 15.7-1.5 0.6-3 1-4.4 1.3v2c1.5-0.5 3.1-1 4.8-1.7 61.1-22.9-23.2-24.6-27.1-35.1-0.7-2-1.6-3.1 3.8-5.6 3.5 1.2 7.6 1.8 12.2 1.8 37.7-0.2 38.3-43.9 5.1-47.3v-5.4h28.5l-10.2-6.5h-24.8-41.3l10.3 6.5h31zm6.9 44.1c-20.4 5.4-30.8-35.6-11-41 19.8-5.3 31.2 35.6 11 41zm15.8-55.9l10.3 6.4h10.6v33.7c0 20.9 7.8 18.3 19.5 19.1v-1.1c-3.8-1.2-6.3-5.2-6.3-7.5v-44.2h18.8l-10.3-6.4zm18.2-11.1c0 3.7 4.2 6.7 9.3 6.7 5.1 0 9.3-3 9.3-6.7 0-3.7-4.2-6.7-9.3-6.7-5.1 0-9.3 3-9.3 6.7zm78.2 52.3c-0.1 15.7-1.9 36.9 5.7 36.8 3.6-0.1 9.3-5.1 18.5-17.8 1-1.5 2-3 2.8-4.3l-2-0.5c-9 18.2-11.5 1.3-11.8-9.4-0.3-10 0.1-14.5 0.1-24.5 0-20.3-35-1.3-42.1 3.8v-18.9h54.3l-10.2-6.4h-70.7l10.3 6.4h3.1v20.3 18.2c-0.1 7.7 5.3 12.2 19.5 14.4v-1.9c-5.9-0.6-6.3-6-6.3-9.2v-16.1c0-6.8 28.9-19.8 28.9-10.6zm81.5-0.9l-1.9 0.2c-0.7 0.1-1.1 0.3-1 0.6 1.6 5.6-9.3 15.7-22.6 15.7-7.4 0-13.5-3.8-13.5-7.1 0-6.7 10.6-9.4 15.5-10.2 10.4-1.7 19.5-4 25.2-7.1 4.6-2.6 6.9-5.7 5.7-9.5-2.5-7.8-14.6-11.2-27.3-11.1v-5.4h34.8l-10.2-6.4h-31-42.6l10.3 6.5 32.3-0.1v5.7c-9.3 1-18.2 3.8-23 8.6-13.8 13.7-7.5 38.7 23.9 38.7 18.9 0 25.7-14.4 25.7-19.1zm-6.6-16.2c2.6 8.3-23.3 10.6-32.4 18.9-2.4 1.3-6.5-28.5 13.5-28.5 10.2 0 17.7 5.5 18.9 9.6zm78.6 16.2l-2 0.2c-0.6 0.1-1 0.3-0.9 0.6 1.6 5.6-9.3 15.7-22.7 15.7-7.3 0-13.4-3.8-13.4-7.1 0-6.7 10.6-9.4 15.5-10.2 10.4-1.7 19.5-4 25.2-7.1 4.6-2.6 6.9-5.7 5.7-9.5-2.5-7.8-14.6-11.2-27.3-11.1v-5.4h34.8l-10.3-6.4h-30.9-42.6l10.3 6.5 32.3-0.1v5.7c-9.3 0.9-18.2 3.7-23 8.5-13.8 13.8-7.5 38.8 23.9 38.7 18.9 0 25.7-14.3 25.7-19zm-6.6-16.3c2.6 8.4-23.3 10.7-32.4 19-2.4 1.3-6.6-28.5 13.5-28.5 10.2 0 17.7 5.5 18.9 9.5zm75.4-11.7c-8.3 0.1-21.6 9.6-26.4 13v-18.9h49.1l-10.3-6.4h-78.1l10.2 6.4h15.9c0 10.6 0 27.2 0 36.8 0 9.3 4.1 13.3 19.5 16.1v-1.9c-5.9-0.6-6.3-6-6.3-9.2v-16.1c0-6.8 20-19.8 20-10.6 0 9.8 3 11.3 6.2 11.4 11.3 0.4 13.3-20.7 0.2-20.6z"/>
</svg>